<?xml version="1.0" encoding="utf-8"?>
<!-- Generator: Adobe Illustrator 21.1.0, SVG Export Plug-In . SVG Version: 6.00 Build 0)  -->
<svg version="1.1" id="Layer_1" xmlns="http://www.w3.org/2000/svg" xmlns:xlink="http://www.w3.org/1999/xlink" x="0px" y="0px"
	 viewBox="0 0 50 50" style="enable-background:new 0 0 50 50;" xml:space="preserve">
<g id="surface1">
	<path d="M26.3,4.4c-0.1,0-0.2,0-0.4,0.1c-1,0.2-2.1,1-3.1,2l4.8,3c0.6-2,1-4-0.3-4.8C27,4.5,26.6,4.4,26.3,4.4z M21.4,8
		c-0.5,0.6-1.3,1.7-2.3,3l-9.9,1.8C8.6,12.9,8,13.4,7.7,14L3,25.5c-0.2,0.6-0.4,1.2-0.3,1.8C2.9,29.5,4.8,31.2,7,31
		c0.5,0,0.9-0.1,1.4-0.3l4.6,2.9c0.6-0.9,1.9-2.7,3.2-4.4c2.7,1.4,9.5,4.8,9.5,4.8c2.2,1.2,4.8,1.4,7.2,0.9l7.9-1.7l0.4,2.9l5.8-0.8
		l-2.6-17.6l-5.8,0.8l0.1,0.8l-10.5-6.6c-0.4-0.2-0.9-0.5-1.4-0.8c0-0.1,0.1-0.2,0.1-0.3L21.4,8z M21.9,10.8l2.4,1.5
		c-1,2-2.5,4.9-4.4,8l-0.5,0.9l-2.3-0.6c-0.7-0.1-1.4,0-2,0.2c0.4-0.8,0.9-1.5,1.3-2.2C18.4,15.4,20.4,12.6,21.9,10.8z M17.4,13.4
		c-0.9,1.2-1.8,2.6-2.7,4C12.5,21,10.5,24.8,9,27.7c-0.3,0.6-1,1.2-2,1.3c-0.9,0.1-1.9-0.5-2.2-1.4c-0.2-0.5-0.1-1,0.1-1.4l4.4-10.9
		c0.1-0.3,0.4-0.5,0.7-0.6L17.4,13.4z M25.8,13.8c0.5,0.3,1.1,0.6,1.4,0.7l11.1,7H39l1.4,9.7l-8,1.7c-2,0.4-4.1,0.2-5.9-0.7
		l-10.9-5.5c-1-0.5-1.5-1.6-1-2.7c0.4-1,1.4-1.5,2.4-1.3l8.1,2l3.1-4.5l-1.8-1.1l-2.2,3.3l-2.7-0.7C23.3,18.7,24.8,15.8,25.8,13.8z
		 M42.7,20l2,13.6l-1.8,0.3l-2-13.7L42.7,20z M12.5,25.3c0.1,0.4,0.2,0.9,0.4,1.3c0.4,0.8,1,1.3,1.4,1.6c0,0,0.2,0.1,0.2,0.1l-2,2.6
		l-2.3-1.4C10.8,28.4,11.6,26.8,12.5,25.3z M6.9,32.1c-1.1,3.1-1.1,5.1-1.1,5.9l-0.7,1c-0.2,0.3-0.1,0.7,0.2,0.9
		C5.5,40,5.6,40,5.8,40c0.2-0.1,0.3-0.2,0.5-0.3l0.6-1c0.7-0.3,2.5-1.2,4.8-3.6L6.9,32.1z"/>
</g>
</svg>
