<?xml version="1.0" encoding="utf-8"?>
<!-- Generator: Adobe Illustrator 21.1.0, SVG Export Plug-In . SVG Version: 6.00 Build 0)  -->
<svg version="1.1" id="Calque_1" xmlns="http://www.w3.org/2000/svg" xmlns:xlink="http://www.w3.org/1999/xlink" x="0px" y="0px"
	 viewBox="0 0 178.1 74.9" style="enable-background:new 0 0 178.1 74.9;" xml:space="preserve">
<style type="text/css">
	.st0{fill:#1E578D;}
	.st1{fill:#67676B;}
	.st2{fill:url(#XMLID_5_);}
	.st3{fill:url(#XMLID_6_);}
	.st4{fill:url(#XMLID_7_);}
	.st5{fill:url(#XMLID_8_);}
	.st6{fill:url(#XMLID_9_);}
	.st7{fill:url(#XMLID_10_);}
	.st8{fill:url(#XMLID_11_);}
</style>
<g>
	<path class="st0" d="M70.1,46.9H62V18.6h8.1V46.9z"/>
	<path class="st1" d="M89.2,46.9h-4.9v-39H73.9V3.4h26v4.5H89.2V46.9z"/>
	<path class="st1" d="M99.8,34.3c0.1,5,3.6,9.1,8.9,9.1c3.9,0,6.5-2.4,8.3-5.6l3.9,2.3c-2.6,4.9-7,7.6-12.5,7.6
		c-8.1,0-13.3-6.2-13.3-14c0-8,4.7-14.7,13.2-14.7c8.7,0,13.3,7.2,12.9,15.3H99.8z M116.2,30.4c-0.6-3.9-3.9-7.1-8-7.1
		c-4,0-7.7,3.2-8.3,7.1H116.2z"/>
	<path class="st1" d="M126.6,33.4c0-8,6.3-14.4,14.3-14.4s14.3,6.4,14.3,14.4s-6.4,14.3-14.3,14.3C133,47.7,126.6,41.4,126.6,33.4z
		 M131.2,33.3c0,5.5,3.9,10,9.6,10c5.7,0,9.6-4.5,9.6-10s-3.9-10-9.6-10C135.2,23.3,131.2,27.9,131.2,33.3z"/>
	<path class="st1" d="M172.5,26.1c-0.6-1.4-2-2.8-3.7-2.8c-1.6,0-3.3,1.3-3.3,3c0,2.5,3.1,3.4,6.3,4.7s6.3,3.2,6.3,7.8
		c0,5.1-4.2,8.8-9.2,8.8c-4.6,0-8.1-2.6-9.6-6.9l4.1-1.7c1.2,2.5,2.5,4.3,5.5,4.3c2.5,0,4.4-1.7,4.4-4.2c0-6.1-12.2-4-12.2-12.5
		c0-4.6,3.7-7.7,8.1-7.7c3.1,0,6,2.2,7.2,5L172.5,26.1z"/>
	
		<radialGradient id="XMLID_5_" cx="-111.4237" cy="-7552.3613" r="43.504" gradientTransform="matrix(0.9261 0 0 -0.1383 143.5895 -975.5916)" gradientUnits="userSpaceOnUse">
		<stop  offset="0" style="stop-color:#A8A8A8"/>
		<stop  offset="0.1951" style="stop-color:#ADADAD;stop-opacity:0.8049"/>
		<stop  offset="0.4229" style="stop-color:#BBBBBB;stop-opacity:0.5771"/>
		<stop  offset="0.6672" style="stop-color:#D3D3D3;stop-opacity:0.3328"/>
		<stop  offset="0.9215" style="stop-color:#F3F3F3;stop-opacity:7.854521e-02"/>
		<stop  offset="1" style="stop-color:#FFFFFF;stop-opacity:0"/>
	</radialGradient>
	<ellipse id="XMLID_24_" class="st2" cx="40.4" cy="68.9" rx="40.4" ry="6"/>
	<g>
		
			<linearGradient id="XMLID_6_" gradientUnits="userSpaceOnUse" x1="25.7656" y1="52.0246" x2="33.4238" y2="44.0739" gradientTransform="matrix(1 0 0 -1 0 76)">
			<stop  offset="6.842100e-02" style="stop-color:#004167"/>
			<stop  offset="0.4945" style="stop-color:#009EE2"/>
			<stop  offset="0.5469" style="stop-color:#0088C6"/>
			<stop  offset="0.6218" style="stop-color:#006FA4"/>
			<stop  offset="0.6984" style="stop-color:#005B89"/>
			<stop  offset="0.7764" style="stop-color:#004C76"/>
			<stop  offset="0.8565" style="stop-color:#00446B"/>
			<stop  offset="0.9421" style="stop-color:#004167"/>
		</linearGradient>
		<path id="XMLID_23_" class="st3" d="M19.1,25.7L19.1,25.7c0,0,6.2-0.6,7.8,1c1.1,1.1,4.7,4.3,4.9,5.8c0.1,1.5-0.8,3.7-0.9,4.3
			l6.9-7.2l0,0c0,0-2.8,0.8-4.4,0.6c-1.8-0.3-5.1-4.1-5.4-5.2c-0.3-1-0.6-3.1,1.3-6l0,0L19.1,25.7z"/>
		
			<radialGradient id="XMLID_7_" cx="-302.5576" cy="-251.9792" r="21.4945" gradientTransform="matrix(1 -2.700000e-03 -2.700000e-03 -1 312.8451 -245.58)" gradientUnits="userSpaceOnUse">
			<stop  offset="0" style="stop-color:#F6FBFF"/>
			<stop  offset="2.309405e-02" style="stop-color:#EBF7FE"/>
			<stop  offset="6.358144e-02" style="stop-color:#CEECFA"/>
			<stop  offset="0.1167" style="stop-color:#9FDAF5"/>
			<stop  offset="0.1804" style="stop-color:#5DC1ED"/>
			<stop  offset="0.2523" style="stop-color:#0AA2E3"/>
			<stop  offset="0.2609" style="stop-color:#009EE2"/>
			<stop  offset="0.3474" style="stop-color:#0088C6"/>
			<stop  offset="0.4711" style="stop-color:#006FA4"/>
			<stop  offset="0.5976" style="stop-color:#005B89"/>
			<stop  offset="0.7264" style="stop-color:#004C76"/>
			<stop  offset="0.8587" style="stop-color:#00446B"/>
			<stop  offset="1" style="stop-color:#004167"/>
		</radialGradient>
		<circle id="XMLID_22_" class="st4" cx="18" cy="12.9" r="12.9"/>
		
			<radialGradient id="XMLID_8_" cx="-269.5847" cy="-290.5709" r="16.6783" gradientTransform="matrix(1 -2.700000e-03 -2.700000e-03 -1 312.8451 -245.58)" gradientUnits="userSpaceOnUse">
			<stop  offset="0" style="stop-color:#F6FBFF"/>
			<stop  offset="2.309405e-02" style="stop-color:#EBF7FE"/>
			<stop  offset="6.358144e-02" style="stop-color:#CEECFA"/>
			<stop  offset="0.1167" style="stop-color:#9FDAF5"/>
			<stop  offset="0.1804" style="stop-color:#5DC1ED"/>
			<stop  offset="0.2523" style="stop-color:#0AA2E3"/>
			<stop  offset="0.2609" style="stop-color:#009EE2"/>
			<stop  offset="0.3474" style="stop-color:#0088C6"/>
			<stop  offset="0.4711" style="stop-color:#006FA4"/>
			<stop  offset="0.5976" style="stop-color:#005B89"/>
			<stop  offset="0.7264" style="stop-color:#004C76"/>
			<stop  offset="0.8587" style="stop-color:#00446B"/>
			<stop  offset="1" style="stop-color:#004167"/>
		</radialGradient>
		<circle id="XMLID_21_" class="st5" cx="40.3" cy="39.1" r="9.8"/>
	</g>
	<g>
		<path class="st0" d="M65.8,62.4H65V51.2h-3v-0.7h6.9v0.7h-3.1V62.4z"/>
		<path class="st0" d="M74,49.4v6.8l0,0c0.4-0.8,1.2-1.3,2.2-1.3c1.9,0,2.4,1.2,2.4,3v4.4h-0.7V58c0-1.3-0.2-2.4-1.7-2.4
			c-1.8,0-2.1,1.7-2.1,3.2v3.6h-0.7v-13C73.4,49.4,74,49.4,74,49.4z"/>
		<path class="st0" d="M84.2,58.8c0,1.8,1.2,3.1,2.9,3.1c1.1,0,2-0.7,2.6-1.7l0.6,0.3c-0.7,1.3-1.8,2-3.3,2c-2.2,0-3.5-1.7-3.5-3.8
			c0-2,1.4-3.8,3.5-3.8c2.2,0,3.5,1.8,3.5,3.9H84.2z M89.8,58.2c-0.2-1.3-1.3-2.5-2.8-2.5s-2.7,1.2-2.8,2.5H89.8z"/>
		<path class="st0" d="M96,56.1L96,56.1c0.3-0.7,0.8-1.1,1.6-1.1c0.3,0,0.5,0.1,0.8,0.2L98,55.8c-0.2-0.1-0.3-0.1-0.5-0.1
			c-1.6,0-1.5,2-1.5,3v3.7h-0.7v-7.3H96V56.1z"/>
		<path class="st0" d="M109.2,62.4h-0.7v-1.3l0,0c-0.5,0.9-1.7,1.5-2.8,1.5c-2.2,0-3.6-1.7-3.6-3.8s1.4-3.7,3.6-3.7
			c1.1,0,2.2,0.5,2.8,1.4l0,0v-1.3h0.7V62.4z M102.8,58.7c0,1.7,1.1,3.2,2.9,3.2c1.9,0,2.9-1.5,2.9-3.3c0-1.7-1.1-3-2.9-3
			C104,55.6,102.8,57.1,102.8,58.7z"/>
		<path class="st0" d="M115.5,56.4L115.5,56.4c0.6-0.9,1.7-1.5,2.8-1.5c2.2,0,3.6,1.7,3.6,3.9c0,2.1-1.4,3.7-3.6,3.7
			c-1.1,0-2.2-0.5-2.8-1.4l0,0v5.5h-0.7V55.1h0.7V56.4z M115.4,58.9c0,1.7,1.1,3,2.9,3c1.7,0,2.8-1.4,2.8-3.1c0-1.7-1.1-3.2-2.9-3.2
			C116.4,55.6,115.4,57.2,115.4,58.9z"/>
		<path class="st0" d="M126.7,58.8c0,1.8,1.2,3.1,2.9,3.1c1.1,0,2-0.7,2.6-1.7l0.6,0.3c-0.7,1.3-1.8,2-3.3,2c-2.2,0-3.5-1.7-3.5-3.8
			c0-2,1.4-3.8,3.5-3.8c2.2,0,3.5,1.8,3.5,3.9H126.7z M132.3,58.2c-0.2-1.3-1.3-2.5-2.8-2.5s-2.7,1.2-2.8,2.5H132.3z"/>
		<path class="st0" d="M143,55.1v4.4c0,0.7,0,1.5-0.4,2.1c-0.5,0.7-1.4,1-2.2,1s-1.7-0.3-2.2-1c-0.5-0.6-0.4-1.4-0.4-2.1v-4.4h0.7
			v4.1c0,1.4,0.2,2.7,1.9,2.7s1.9-1.3,1.9-2.7v-4.1H143z"/>
		<path class="st0" d="M149.2,62.4h-0.7v-6.6h-0.8v-0.7h0.8v-2.6h0.7v2.6h1.3v0.7h-1.3V62.4z"/>
		<path class="st0" d="M156.2,52.7c0,0.4-0.3,0.6-0.6,0.6c-0.4,0-0.6-0.3-0.6-0.6s0.3-0.6,0.6-0.6C155.9,52.1,156.2,52.4,156.2,52.7
			z M155.9,62.4h-0.7v-7.3h0.7V62.4z"/>
		<path class="st0" d="M167.3,56.8c-0.7-0.8-1.5-1.2-2.6-1.2c-1.7,0-3,1.5-3,3.1s1.3,3.1,3,3.1c1,0,2-0.5,2.7-1.3v1
			c-0.7,0.6-1.7,1-2.6,1c-2.2,0-3.7-1.7-3.7-3.8s1.6-3.8,3.7-3.8c0.9,0,1.8,0.3,2.5,0.9L167.3,56.8L167.3,56.8z"/>
		<path class="st0" d="M175.4,56.4c-0.2-0.5-0.7-0.8-1.3-0.8s-1.2,0.5-1.2,1.1c0,1.7,3.5,0.9,3.5,3.5c0,1.3-1,2.3-2.3,2.3
			c-1.2,0-2.2-0.7-2.5-1.9l0.7-0.2c0.3,0.9,0.8,1.5,1.8,1.5c0.9,0,1.6-0.7,1.6-1.6c0-0.9-0.7-1.2-1.4-1.4c-1-0.4-2.1-0.8-2.1-2
			c0-1.1,0.9-1.8,2-1.8c0.7,0,1.5,0.5,1.9,1.2L175.4,56.4z"/>
	</g>
	<g>
		
			<linearGradient id="XMLID_9_" gradientUnits="userSpaceOnUse" x1="-88.5965" y1="704.0215" x2="-84.8428" y2="700.1245" gradientTransform="matrix(-0.1546 0.988 0.988 0.1546 -650.2943 -11.6956)">
			<stop  offset="6.842100e-02" style="stop-color:#004167"/>
			<stop  offset="0.4945" style="stop-color:#009EE2"/>
			<stop  offset="0.5469" style="stop-color:#0088C6"/>
			<stop  offset="0.6218" style="stop-color:#006FA4"/>
			<stop  offset="0.6984" style="stop-color:#005B89"/>
			<stop  offset="0.7764" style="stop-color:#004C76"/>
			<stop  offset="0.8565" style="stop-color:#00446B"/>
			<stop  offset="0.9421" style="stop-color:#004167"/>
		</linearGradient>
		<path id="XMLID_3_" class="st6" d="M58.6,6.3L58.6,6.3c0,0-0.2,3.1-1.1,3.7c-0.6,0.5-2.5,2-3.2,1.9c-0.8-0.1-1.7-0.7-2-0.8l3,3.9
			l0,0c0,0-0.2-1.4,0.1-2.2c0.3-0.9,2.4-2.2,2.9-2.2c0.5-0.1,1.6,0,2.8,1.1l0,0L58.6,6.3z"/>
		
			<radialGradient id="XMLID_10_" cx="-407.6658" cy="391.367" r="10.5345" gradientTransform="matrix(-0.1519 0.9884 0.9884 0.1519 -380.5217 347.2299)" gradientUnits="userSpaceOnUse">
			<stop  offset="0" style="stop-color:#F6FBFF"/>
			<stop  offset="2.309405e-02" style="stop-color:#EBF7FE"/>
			<stop  offset="6.358144e-02" style="stop-color:#CEECFA"/>
			<stop  offset="0.1167" style="stop-color:#9FDAF5"/>
			<stop  offset="0.1804" style="stop-color:#5DC1ED"/>
			<stop  offset="0.2523" style="stop-color:#0AA2E3"/>
			<stop  offset="0.2609" style="stop-color:#009EE2"/>
			<stop  offset="0.3474" style="stop-color:#0088C6"/>
			<stop  offset="0.4711" style="stop-color:#006FA4"/>
			<stop  offset="0.5976" style="stop-color:#005B89"/>
			<stop  offset="0.7264" style="stop-color:#004C76"/>
			<stop  offset="0.8587" style="stop-color:#00446B"/>
			<stop  offset="1" style="stop-color:#004167"/>
		</radialGradient>
		<circle id="XMLID_2_" class="st7" cx="64.9" cy="6.7" r="6.3"/>
		
			<radialGradient id="XMLID_11_" cx="-391.5066" cy="372.4522" r="8.1737" gradientTransform="matrix(-0.1519 0.9884 0.9884 0.1519 -380.5217 347.2299)" gradientUnits="userSpaceOnUse">
			<stop  offset="0" style="stop-color:#F6FBFF"/>
			<stop  offset="2.309405e-02" style="stop-color:#EBF7FE"/>
			<stop  offset="6.358144e-02" style="stop-color:#CEECFA"/>
			<stop  offset="0.1167" style="stop-color:#9FDAF5"/>
			<stop  offset="0.1804" style="stop-color:#5DC1ED"/>
			<stop  offset="0.2523" style="stop-color:#0AA2E3"/>
			<stop  offset="0.2609" style="stop-color:#009EE2"/>
			<stop  offset="0.3474" style="stop-color:#0088C6"/>
			<stop  offset="0.4711" style="stop-color:#006FA4"/>
			<stop  offset="0.5976" style="stop-color:#005B89"/>
			<stop  offset="0.7264" style="stop-color:#004C76"/>
			<stop  offset="0.8587" style="stop-color:#00446B"/>
			<stop  offset="1" style="stop-color:#004167"/>
		</radialGradient>
		<circle id="XMLID_1_" class="st8" cx="50.6" cy="15.5" r="4.8"/>
	</g>
</g>
</svg>
